<?xml version="1.0" encoding="UTF-8" standalone="no"?>
<!DOCTYPE svg PUBLIC "-//W3C//DTD SVG 1.1//EN"
 "http://www.w3.org/Graphics/SVG/1.1/DTD/svg11.dtd">
<!-- Generated by graphviz version 2.43.0 (0)
 -->
<!-- Title: network Pages: 1 -->
<svg width="614pt" height="547pt"
 viewBox="0.00 0.00 614.00 547.00" xmlns="http://www.w3.org/2000/svg" xmlns:xlink="http://www.w3.org/1999/xlink">
<g id="graph0" class="graph" transform="scale(1 1) rotate(0) translate(4 543)">
<title>network</title>
<polygon fill="white" stroke="transparent" points="-4,4 -4,-543 610,-543 610,4 -4,4"/>
<!-- 1&#45;&#45;5 -->
<g id="edge1" class="edge">
<title>1&#45;&#45;5</title>
<path fill="none" stroke="black" d="M95.65,-179.68C112.35,-180.49 136.97,-181.67 153.66,-182.47"/>
</g>
<!-- 5&#45;&#45;4 -->
<g id="edge2" class="edge">
<title>5&#45;&#45;4</title>
<path fill="none" stroke="black" d="M161.27,-168.29C152.19,-155.3 139.15,-136.64 130.13,-123.73"/>
</g>
<!-- 5&#45;&#45;6 -->
<g id="edge3" class="edge">
<title>5&#45;&#45;6</title>
<path fill="none" stroke="black" d="M184.24,-170.11C195.67,-157.96 212.52,-140.05 223.94,-127.92"/>
</g>
<!-- 5&#45;&#45;7 -->
<g id="edge4" class="edge">
<title>5&#45;&#45;7</title>
<path fill="none" stroke="black" d="M167.17,-201.09C163.7,-214.44 158.96,-232.63 155.51,-245.89"/>
</g>
<!-- 5&#45;&#45;8 -->
<g id="edge5" class="edge">
<title>5&#45;&#45;8</title>
<path fill="none" stroke="black" d="M184.22,-197.01C200.81,-215.24 230.01,-247.32 246.44,-265.38"/>
</g>
<!-- 6&#45;&#45;3 -->
<g id="edge7" class="edge">
<title>6&#45;&#45;3</title>
<path fill="none" stroke="black" d="M241.16,-97.03C245.88,-79.63 253.05,-53.21 257.76,-35.84"/>
</g>
<!-- 6&#45;&#45;9 -->
<g id="edge8" class="edge">
<title>6&#45;&#45;9</title>
<path fill="none" stroke="black" d="M249.12,-127.88C262.12,-141.28 282.16,-161.92 295.11,-175.28"/>
</g>
<!-- 6&#45;&#45;10 -->
<g id="edge9" class="edge">
<title>6&#45;&#45;10</title>
<path fill="none" stroke="black" d="M238.1,-132.65C239.84,-150.45 242.49,-177.64 244.26,-195.85"/>
</g>
<!-- 7&#45;&#45;8 -->
<g id="edge10" class="edge">
<title>7&#45;&#45;8</title>
<path fill="none" stroke="black" d="M169.23,-265.93C189.14,-268.78 220.79,-273.3 240.59,-276.14"/>
</g>
<!-- 8&#45;&#45;9 -->
<g id="edge11" class="edge">
<title>8&#45;&#45;9</title>
<path fill="none" stroke="black" d="M267.37,-262.55C276.33,-246.1 290.13,-220.74 299.05,-204.34"/>
</g>
<!-- 8&#45;&#45;16 -->
<g id="edge12" class="edge">
<title>8&#45;&#45;16</title>
<path fill="none" stroke="black" d="M275.04,-286.96C291.59,-295.27 316.99,-308.01 333.72,-316.39"/>
</g>
<!-- 2&#45;&#45;6 -->
<g id="edge6" class="edge">
<title>2&#45;&#45;6</title>
<path fill="none" stroke="black" d="M203.57,-43.61C210.79,-59.27 221.59,-82.69 228.79,-98.32"/>
</g>
<!-- 9&#45;&#45;10 -->
<g id="edge13" class="edge">
<title>9&#45;&#45;10</title>
<path fill="none" stroke="black" d="M290.93,-195.61C282.51,-199.25 272.34,-203.65 263.81,-207.34"/>
</g>
<!-- 9&#45;&#45;20 -->
<g id="edge14" class="edge">
<title>9&#45;&#45;20</title>
<path fill="none" stroke="black" d="M319.01,-202.79C329.14,-215.82 343.97,-234.9 354.27,-248.15"/>
</g>
<!-- 10&#45;&#45;11 -->
<g id="edge15" class="edge">
<title>10&#45;&#45;11</title>
<path fill="none" stroke="black" d="M237.88,-232.25C226.56,-255.97 206.3,-298.38 195.01,-322.03"/>
</g>
<!-- 10&#45;&#45;15 -->
<g id="edge16" class="edge">
<title>10&#45;&#45;15</title>
<path fill="none" stroke="black" d="M265.11,-212.47C286.77,-209.6 322,-204.94 343.67,-202.07"/>
</g>
<!-- 16&#45;&#45;17 -->
<g id="edge17" class="edge">
<title>16&#45;&#45;17</title>
<path fill="none" stroke="black" d="M336.48,-337.55C323.91,-348.78 305.62,-365.1 293.05,-376.32"/>
</g>
<!-- 16&#45;&#45;22 -->
<g id="edge18" class="edge">
<title>16&#45;&#45;22</title>
<path fill="none" stroke="black" d="M368.07,-332.5C383.52,-339.26 405.98,-349.08 421.42,-355.83"/>
</g>
<!-- 16&#45;&#45;24 -->
<g id="edge19" class="edge">
<title>16&#45;&#45;24</title>
<path fill="none" stroke="black" d="M369.47,-322.08C394.42,-318.36 438.22,-311.81 463.16,-308.09"/>
</g>
<!-- 20&#45;&#45;25 -->
<!-- 20&#45;&#45;26 -->
<g id="edge21" class="edge">
<title>20&#45;&#45;26</title>
<path fill="none" stroke="black" d="M365.62,-282.45C365.06,-306.1 364.11,-346.14 363.55,-369.87"/>
</g>
<!-- 11&#45;&#45;17 -->
<g id="edge23" class="edge">
<title>11&#45;&#45;17</title>
<path fill="none" stroke="black" d="M203.3,-348.05C219.85,-357 245.25,-370.74 261.97,-379.79"/>
</g>
<!-- 11&#45;&#45;12 -->
<g id="edge22" class="edge">
<title>11&#45;&#45;12</title>
<path fill="none" stroke="black" d="M174.69,-353.32C161.61,-368.6 140.89,-392.79 127.69,-408.2"/>
</g>
<!-- 15&#45;&#45;25 -->
<!-- 17&#45;&#45;26 -->
<g id="edge30" class="edge">
<title>17&#45;&#45;26</title>
<path fill="none" stroke="black" d="M298.01,-389C311.79,-389.04 330.3,-389.08 344.06,-389.11"/>
</g>
<!-- 17&#45;&#45;18 -->
<g id="edge29" class="edge">
<title>17&#45;&#45;18</title>
<path fill="none" stroke="black" d="M264.62,-401.93C250.08,-415.13 227.66,-435.49 213.16,-448.65"/>
</g>
<!-- 22&#45;&#45;24 -->
<g id="edge38" class="edge">
<title>22&#45;&#45;24</title>
<path fill="none" stroke="black" d="M450.13,-348.15C456.42,-339.67 464.22,-329.16 470.52,-320.66"/>
</g>
<!-- 22&#45;&#45;21 -->
<g id="edge36" class="edge">
<title>22&#45;&#45;21</title>
<path fill="none" stroke="black" d="M457.6,-367.39C477.99,-371.7 510.34,-378.52 530.76,-382.83"/>
</g>
<!-- 22&#45;&#45;23 -->
<g id="edge37" class="edge">
<title>22&#45;&#45;23</title>
<path fill="none" stroke="black" d="M452.94,-376.39C462.13,-384.8 474.05,-395.73 483.21,-404.12"/>
</g>
<!-- 24&#45;&#45;23 -->
<g id="edge39" class="edge">
<title>24&#45;&#45;23</title>
<path fill="none" stroke="black" d="M484.53,-324.23C487.34,-344.77 491.8,-377.35 494.62,-397.93"/>
</g>
<!-- 24&#45;&#45;27 -->
<g id="edge40" class="edge">
<title>24&#45;&#45;27</title>
<path fill="none" stroke="black" d="M501.29,-306.05C520.33,-306.8 549.23,-307.94 568.23,-308.69"/>
</g>
<!-- 25&#45;&#45;22 -->
<!-- 25&#45;&#45;24 -->
<!-- 25&#45;&#45;28 -->
<!-- 25&#45;&#45;29 -->
<!-- 26&#45;&#45;30 -->
<g id="edge41" class="edge">
<title>26&#45;&#45;30</title>
<path fill="none" stroke="black" d="M367.82,-407.92C372.32,-425.75 379.05,-452.41 383.54,-470.21"/>
</g>
<!-- 12&#45;&#45;13 -->
<g id="edge25" class="edge">
<title>12&#45;&#45;13</title>
<path fill="none" stroke="black" d="M113.75,-441.93C112.42,-458.97 110.49,-483.74 109.16,-500.77"/>
</g>
<!-- 12&#45;&#45;14 -->
<g id="edge26" class="edge">
<title>12&#45;&#45;14</title>
<path fill="none" stroke="black" d="M100.18,-434.93C86.73,-445.83 67.14,-461.7 53.78,-472.52"/>
</g>
<!-- 12&#45;&#45;18 -->
<g id="edge27" class="edge">
<title>12&#45;&#45;18</title>
<path fill="none" stroke="black" d="M132.6,-430.77C146.97,-437.42 167.3,-446.83 181.67,-453.49"/>
</g>
<!-- 12&#45;&#45;19 -->
<g id="edge28" class="edge">
<title>12&#45;&#45;19</title>
<path fill="none" stroke="black" d="M96.2,-420.66C79.29,-418.82 54.73,-416.15 37.84,-414.32"/>
</g>
<!-- 14&#45;&#45;19 -->
<g id="edge31" class="edge">
<title>14&#45;&#45;19</title>
<path fill="none" stroke="black" d="M33.81,-465.88C30.77,-455.02 26.96,-441.36 23.94,-430.54"/>
</g>
<!-- 28&#45;&#45;29 -->
<g id="edge42" class="edge">
<title>28&#45;&#45;29</title>
<path fill="none" stroke="black" d="M549.56,-206.57C542.67,-196.95 533.84,-184.65 526.91,-174.99"/>
</g>
<!-- 1 -->
<g id="node1" class="node">
<title>1</title>
<ellipse fill="#8dd3c7" stroke="black" cx="77.46" cy="-178.81" rx="18" ry="18"/>
<text text-anchor="middle" x="77.46" y="-174.61" font-family="Times,serif" font-size="14.00">1</text>
</g>
<!-- 5 -->
<g id="node2" class="node">
<title>5</title>
<ellipse fill="#8dd3c7" stroke="black" cx="171.79" cy="-183.34" rx="18" ry="18"/>
<text text-anchor="middle" x="171.79" y="-179.14" font-family="Times,serif" font-size="14.00">5</text>
</g>
<!-- 4 -->
<g id="node3" class="node">
<title>4</title>
<ellipse fill="#8dd3c7" stroke="black" cx="119.81" cy="-108.95" rx="18" ry="18"/>
<text text-anchor="middle" x="119.81" y="-104.75" font-family="Times,serif" font-size="14.00">4</text>
</g>
<!-- 6 -->
<g id="node4" class="node">
<title>6</title>
<ellipse fill="#8dd3c7" stroke="black" cx="236.35" cy="-114.73" rx="18" ry="18"/>
<text text-anchor="middle" x="236.35" y="-110.53" font-family="Times,serif" font-size="14.00">6</text>
</g>
<!-- 7 -->
<g id="node5" class="node">
<title>7</title>
<ellipse fill="#8dd3c7" stroke="black" cx="150.98" cy="-263.32" rx="18" ry="18"/>
<text text-anchor="middle" x="150.98" y="-259.12" font-family="Times,serif" font-size="14.00">7</text>
</g>
<!-- 8 -->
<g id="node6" class="node">
<title>8</title>
<ellipse fill="#8dd3c7" stroke="black" cx="258.58" cy="-278.71" rx="18" ry="18"/>
<text text-anchor="middle" x="258.58" y="-274.51" font-family="Times,serif" font-size="14.00">8</text>
</g>
<!-- 2 -->
<g id="node7" class="node">
<title>2</title>
<ellipse fill="#8dd3c7" stroke="black" cx="195.98" cy="-27.14" rx="18" ry="18"/>
<text text-anchor="middle" x="195.98" y="-22.94" font-family="Times,serif" font-size="14.00">2</text>
</g>
<!-- 3 -->
<g id="node8" class="node">
<title>3</title>
<ellipse fill="#8dd3c7" stroke="black" cx="262.54" cy="-18.26" rx="18" ry="18"/>
<text text-anchor="middle" x="262.54" y="-14.06" font-family="Times,serif" font-size="14.00">3</text>
</g>
<!-- 9 -->
<g id="node9" class="node">
<title>9</title>
<ellipse fill="#8dd3c7" stroke="black" cx="307.77" cy="-188.32" rx="18" ry="18"/>
<text text-anchor="middle" x="307.77" y="-184.12" font-family="Times,serif" font-size="14.00">9</text>
</g>
<!-- 10 -->
<g id="node10" class="node">
<title>10</title>
<ellipse fill="#8dd3c7" stroke="black" cx="246.13" cy="-214.98" rx="18.9" ry="18.9"/>
<text text-anchor="middle" x="246.13" y="-210.78" font-family="Times,serif" font-size="14.00">10</text>
</g>
<!-- 16 -->
<g id="node11" class="node">
<title>16</title>
<ellipse fill="#8dd3c7" stroke="black" cx="350.66" cy="-324.89" rx="18.9" ry="18.9"/>
<text text-anchor="middle" x="350.66" y="-320.69" font-family="Times,serif" font-size="14.00">16</text>
</g>
<!-- 20 -->
<g id="node12" class="node">
<title>20</title>
<ellipse fill="#8dd3c7" stroke="black" cx="366.08" cy="-263.34" rx="18.9" ry="18.9"/>
<text text-anchor="middle" x="366.08" y="-259.14" font-family="Times,serif" font-size="14.00">20</text>
</g>
<!-- 11 -->
<g id="node13" class="node">
<title>11</title>
<ellipse fill="#8dd3c7" stroke="black" cx="186.84" cy="-339.14" rx="18.75" ry="18.75"/>
<text text-anchor="middle" x="186.84" y="-334.94" font-family="Times,serif" font-size="14.00">11</text>
</g>
<!-- 15 -->
<g id="node14" class="node">
<title>15</title>
<ellipse fill="#8dd3c7" stroke="black" cx="362.64" cy="-199.56" rx="18.9" ry="18.9"/>
<text text-anchor="middle" x="362.64" y="-195.36" font-family="Times,serif" font-size="14.00">15</text>
</g>
<!-- 17 -->
<g id="node15" class="node">
<title>17</title>
<ellipse fill="#8dd3c7" stroke="black" cx="278.91" cy="-388.95" rx="18.9" ry="18.9"/>
<text text-anchor="middle" x="278.91" y="-384.75" font-family="Times,serif" font-size="14.00">17</text>
</g>
<!-- 22 -->
<g id="node16" class="node">
<title>22</title>
<ellipse fill="#8dd3c7" stroke="black" cx="438.79" cy="-363.42" rx="18.9" ry="18.9"/>
<text text-anchor="middle" x="438.79" y="-359.22" font-family="Times,serif" font-size="14.00">22</text>
</g>
<!-- 24 -->
<g id="node17" class="node">
<title>24</title>
<ellipse fill="#8dd3c7" stroke="black" cx="481.93" cy="-305.29" rx="18.9" ry="18.9"/>
<text text-anchor="middle" x="481.93" y="-301.09" font-family="Times,serif" font-size="14.00">24</text>
</g>
<!-- 25 -->
<g id="node18" class="node">
<title>25</title>
<ellipse fill="white" stroke="black" cx="460.26" cy="-244.04" rx="18.9" ry="18.9"/>
<text text-anchor="middle" x="460.26" y="-239.84" font-family="Times,serif" font-size="14.00">25</text>
</g>
<!-- 26 -->
<g id="node19" class="node">
<title>26</title>
<ellipse fill="#8dd3c7" stroke="black" cx="363.09" cy="-389.16" rx="18.9" ry="18.9"/>
<text text-anchor="middle" x="363.09" y="-384.96" font-family="Times,serif" font-size="14.00">26</text>
</g>
<!-- 12 -->
<g id="node20" class="node">
<title>12</title>
<ellipse fill="#8dd3c7" stroke="black" cx="115.24" cy="-422.73" rx="18.9" ry="18.9"/>
<text text-anchor="middle" x="115.24" y="-418.53" font-family="Times,serif" font-size="14.00">12</text>
</g>
<!-- 13 -->
<g id="node21" class="node">
<title>13</title>
<ellipse fill="#8dd3c7" stroke="black" cx="107.67" cy="-519.93" rx="18.9" ry="18.9"/>
<text text-anchor="middle" x="107.67" y="-515.73" font-family="Times,serif" font-size="14.00">13</text>
</g>
<!-- 14 -->
<g id="node22" class="node">
<title>14</title>
<ellipse fill="#8dd3c7" stroke="black" cx="39" cy="-484.49" rx="18.9" ry="18.9"/>
<text text-anchor="middle" x="39" y="-480.29" font-family="Times,serif" font-size="14.00">14</text>
</g>
<!-- 18 -->
<g id="node23" class="node">
<title>18</title>
<ellipse fill="#8dd3c7" stroke="black" cx="199" cy="-461.51" rx="18.9" ry="18.9"/>
<text text-anchor="middle" x="199" y="-457.31" font-family="Times,serif" font-size="14.00">18</text>
</g>
<!-- 19 -->
<g id="node24" class="node">
<title>19</title>
<ellipse fill="#8dd3c7" stroke="black" cx="18.83" cy="-412.25" rx="18.9" ry="18.9"/>
<text text-anchor="middle" x="18.83" y="-408.05" font-family="Times,serif" font-size="14.00">19</text>
</g>
<!-- 28 -->
<g id="node25" class="node">
<title>28</title>
<ellipse fill="#ffffb3" stroke="black" cx="560.73" cy="-222.13" rx="18.9" ry="18.9"/>
<text text-anchor="middle" x="560.73" y="-217.93" font-family="Times,serif" font-size="14.00">28</text>
</g>
<!-- 29 -->
<g id="node26" class="node">
<title>29</title>
<ellipse fill="#ffffb3" stroke="black" cx="515.56" cy="-159.17" rx="18.9" ry="18.9"/>
<text text-anchor="middle" x="515.56" y="-154.97" font-family="Times,serif" font-size="14.00">29</text>
</g>
<!-- 21 -->
<g id="node27" class="node">
<title>21</title>
<ellipse fill="#8dd3c7" stroke="black" cx="549.66" cy="-386.82" rx="18.9" ry="18.9"/>
<text text-anchor="middle" x="549.66" y="-382.62" font-family="Times,serif" font-size="14.00">21</text>
</g>
<!-- 23 -->
<g id="node28" class="node">
<title>23</title>
<ellipse fill="#8dd3c7" stroke="black" cx="497.23" cy="-416.96" rx="18.9" ry="18.9"/>
<text text-anchor="middle" x="497.23" y="-412.76" font-family="Times,serif" font-size="14.00">23</text>
</g>
<!-- 27 -->
<g id="node29" class="node">
<title>27</title>
<ellipse fill="#8dd3c7" stroke="black" cx="587.47" cy="-309.45" rx="18.9" ry="18.9"/>
<text text-anchor="middle" x="587.47" y="-305.25" font-family="Times,serif" font-size="14.00">27</text>
</g>
<!-- 30 -->
<g id="node30" class="node">
<title>30</title>
<ellipse fill="#8dd3c7" stroke="black" cx="388.26" cy="-488.89" rx="18.9" ry="18.9"/>
<text text-anchor="middle" x="388.26" y="-484.69" font-family="Times,serif" font-size="14.00">30</text>
</g>
</g>
</svg>
